<svg xmlns="http://www.w3.org/2000/svg" width="1200" height="330" viewBox="0 0 1200 330" role="img" aria-labelledby="title desc">
  <title id="title">Takt's GitHub activity</title>
  <desc id="desc">Build, learn and create contribution activity</desc>
  <defs><linearGradient id="g" x1="0" x2="1"><stop stop-color="#0d1117"/><stop offset="1" stop-color="#161b2d"/></linearGradient></defs>
  <rect width="1200" height="330" rx="20" fill="url(#g)" stroke="#30363d"/>
  <text x="44" y="58" fill="#f8fafc" font-family="Arial, sans-serif" font-size="28" font-weight="700">GITHUB ACTIVITY</text>
  <text x="44" y="88" fill="#8b949e" font-family="Arial, sans-serif" font-size="16">Every commit is a small step forward.</text>
  <g transform="translate(44 122)">
    <g fill="#161b22">
      <rect x="0" y="0" width="18" height="18" rx="4"/><rect x="28" y="0" width="18" height="18" rx="4"/><rect x="56" y="0" width="18" height="18" rx="4"/><rect x="84" y="0" width="18" height="18" rx="4"/><rect x="112" y="0" width="18" height="18" rx="4"/><rect x="140" y="0" width="18" height="18" rx="4"/><rect x="168" y="0" width="18" height="18" rx="4"/><rect x="196" y="0" width="18" height="18" rx="4"/><rect x="224" y="0" width="18" height="18" rx="4"/><rect x="252" y="0" width="18" height="18" rx="4"/><rect x="280" y="0" width="18" height="18" rx="4"/><rect x="308" y="0" width="18" height="18" rx="4"/><rect x="336" y="0" width="18" height="18" rx="4"/><rect x="364" y="0" width="18" height="18" rx="4"/><rect x="392" y="0" width="18" height="18" rx="4"/><rect x="420" y="0" width="18" height="18" rx="4"/><rect x="448" y="0" width="18" height="18" rx="4"/><rect x="476" y="0" width="18" height="18" rx="4"/><rect x="504" y="0" width="18" height="18" rx="4"/><rect x="532" y="0" width="18" height="18" rx="4"/><rect x="560" y="0" width="18" height="18" rx="4"/><rect x="588" y="0" width="18" height="18" rx="4"/><rect x="616" y="0" width="18" height="18" rx="4"/><rect x="644" y="0" width="18" height="18" rx="4"/><rect x="672" y="0" width="18" height="18" rx="4"/><rect x="700" y="0" width="18" height="18" rx="4"/><rect x="728" y="0" width="18" height="18" rx="4"/><rect x="756" y="0" width="18" height="18" rx="4"/><rect x="784" y="0" width="18" height="18" rx="4"/><rect x="812" y="0" width="18" height="18" rx="4"/><rect x="840" y="0" width="18" height="18" rx="4"/><rect x="868" y="0" width="18" height="18" rx="4"/><rect x="896" y="0" width="18" height="18" rx="4"/><rect x="924" y="0" width="18" height="18" rx="4"/><rect x="952" y="0" width="18" height="18" rx="4"/><rect x="980" y="0" width="18" height="18" rx="4"/><rect x="1008" y="0" width="18" height="18" rx="4"/><rect x="1036" y="0" width="18" height="18" rx="4"/><rect x="1064" y="0" width="18" height="18" rx="4"/><rect x="1092" y="0" width="18" height="18" rx="4"/>
    </g>
    <g fill="#14532d"><rect x="56" y="28" width="18" height="18" rx="4"/><rect x="112" y="56" width="18" height="18" rx="4"/><rect x="196" y="28" width="18" height="18" rx="4"/><rect x="280" y="84" width="18" height="18" rx="4"/><rect x="364" y="56" width="18" height="18" rx="4"/><rect x="448" y="112" width="18" height="18" rx="4"/><rect x="532" y="84" width="18" height="18" rx="4"/><rect x="616" y="28" width="18" height="18" rx="4"/><rect x="700" y="56" width="18" height="18" rx="4"/><rect x="784" y="112" width="18" height="18" rx="4"/><rect x="868" y="84" width="18" height="18" rx="4"/><rect x="952" y="56" width="18" height="18" rx="4"/><rect x="1036" y="28" width="18" height="18" rx="4"/></g>
    <g fill="#22c55e"><rect x="84" y="28" width="18" height="18" rx="4"/><rect x="224" y="56" width="18" height="18" rx="4"/><rect x="392" y="84" width="18" height="18" rx="4"/><rect x="560" y="28" width="18" height="18" rx="4"/><rect x="728" y="84" width="18" height="18" rx="4"/><rect x="896" y="28" width="18" height="18" rx="4"/><rect x="1064" y="112" width="18" height="18" rx="4"/></g>
    <g fill="#4ade80"><rect x="140" y="84" width="18" height="18" rx="4"/><rect x="336" y="28" width="18" height="18" rx="4"/><rect x="504" y="56" width="18" height="18" rx="4"/><rect x="812" y="28" width="18" height="18" rx="4"/><rect x="980" y="84" width="18" height="18" rx="4"/></g>
  </g>
  <text x="44" y="284" fill="#06b6d4" font-family="Arial, sans-serif" font-size="17" font-weight="700" letter-spacing="2">BUILD • LEARN • CREATE</text>
  <text x="1156" y="284" text-anchor="end" fill="#64748b" font-family="Arial, sans-serif" font-size="15">Live contribution history → github.com/raphiphat8888</text>
</svg>
