<svg xmlns="http://www.w3.org/2000/svg" width="1000" height="150" viewBox="0 0 1000 150" role="img" aria-labelledby="title desc">
  <title id="title">Takt's tech stack</title>
  <desc id="desc">Python, HTML, Git, GitHub and VS Code</desc>
  <defs>
    <linearGradient id="bg" x1="0" x2="1">
      <stop offset="0" stop-color="#0d1117"/>
      <stop offset="1" stop-color="#151b2b"/>
    </linearGradient>
    <linearGradient id="cyan" x1="0" x2="1">
      <stop offset="0" stop-color="#06b6d4"/>
      <stop offset="1" stop-color="#8b5cf6"/>
    </linearGradient>
  </defs>
  <rect width="1000" height="150" rx="18" fill="url(#bg)" stroke="#30363d"/>
  <text x="40" y="38" fill="#8b949e" font-family="Arial, sans-serif" font-size="15" letter-spacing="3">TOOLS I BUILD WITH</text>
  <g font-family="Arial, sans-serif" font-size="19" font-weight="700" text-anchor="middle">
    <g transform="translate(40 58)"><rect width="165" height="62" rx="12" fill="#172554" stroke="#2563eb"/><circle cx="31" cy="31" r="17" fill="#3776ab"/><text x="31" y="38" fill="white" font-size="17">Py</text><text x="104" y="38" fill="#dbeafe">PYTHON</text></g>
    <g transform="translate(222 58)"><rect width="165" height="62" rx="12" fill="#431407" stroke="#f97316"/><circle cx="31" cy="31" r="17" fill="#e34f26"/><text x="31" y="37" fill="white" font-size="15">&lt;/&gt;</text><text x="104" y="38" fill="#ffedd5">HTML</text></g>
    <g transform="translate(404 58)"><rect width="165" height="62" rx="12" fill="#172554" stroke="#38bdf8"/><circle cx="31" cy="31" r="17" fill="#f05032"/><path d="M22 31h18M31 22v18" stroke="white" stroke-width="3"/><text x="104" y="38" fill="#e0f2fe">GIT</text></g>
    <g transform="translate(586 58)"><rect width="165" height="62" rx="12" fill="#1e1b4b" stroke="#8b5cf6"/><circle cx="31" cy="31" r="17" fill="#24292f"/><path d="M24 31l6 6 10-12" fill="none" stroke="white" stroke-width="3"/><text x="104" y="38" fill="#ede9fe">GITHUB</text></g>
    <g transform="translate(768 58)"><rect width="165" height="62" rx="12" fill="#082f49" stroke="#06b6d4"/><circle cx="31" cy="31" r="17" fill="url(#cyan)"/><text x="31" y="38" fill="white" font-size="14">&gt;_</text><text x="104" y="38" fill="#cffafe">VS CODE</text></g>
  </g>
</svg>
